<?xml version="1.0" encoding="UTF-8" standalone="no"?>
<!-- Created with Inkscape (http://www.inkscape.org/) -->

<svg
   xmlns:dc="http://purl.org/dc/elements/1.1/"
   xmlns:cc="http://creativecommons.org/ns#"
   xmlns:rdf="http://www.w3.org/1999/02/22-rdf-syntax-ns#"
   xmlns:svg="http://www.w3.org/2000/svg"
   xmlns="http://www.w3.org/2000/svg"
   xmlns:sodipodi="http://sodipodi.sourceforge.net/DTD/sodipodi-0.dtd"
   xmlns:inkscape="http://www.inkscape.org/namespaces/inkscape"
   width="25px"
   height="25px"
   viewBox="0 0 50 50"
   version="1.1"
   id="SVGRoot"
   inkscape:version="0.92.4 (5da689c313, 2019-01-14)"
   sodipodi:docname="facebooLogo.svg">
  <defs
     id="defs831" />
  <sodipodi:namedview
     id="base"
     pagecolor="#ffffff"
     bordercolor="#666666"
     borderopacity="1.0"
     inkscape:pageopacity="0.0"
     inkscape:pageshadow="2"
     inkscape:zoom="2.56"
     inkscape:cx="33.903205"
     inkscape:cy="11.871026"
     inkscape:document-units="px"
     inkscape:current-layer="layer1"
     showgrid="false"
     inkscape:window-width="1366"
     inkscape:window-height="705"
     inkscape:window-x="-8"
     inkscape:window-y="-8"
     inkscape:window-maximized="1"
     inkscape:grid-bbox="true" />
  <metadata
     id="metadata834">
    <rdf:RDF>
      <cc:Work
         rdf:about="">
        <dc:format>image/svg+xml</dc:format>
        <dc:type
           rdf:resource="http://purl.org/dc/dcmitype/StillImage" />
        <dc:title></dc:title>
      </cc:Work>
    </rdf:RDF>
  </metadata>
  <g
     inkscape:label="Layer 1"
     inkscape:groupmode="layer"
     id="layer1">
    <path
       style="fill:#0000ea;fill-opacity:1;stroke-width:1"
       d="M 2.913608,49.028157 C 1.991026,48.804604 1.216039,48.042345 0.97655995,47.122923 0.90837995,46.86116 0.89999995,44.439875 0.89999995,25 c 0,-19.439875 0.0084,-21.8611601 0.07656,-22.1229223 C 1.219119,1.9458285 2.055855,1.1468583 2.989961,0.9545489 c 0.188994,-0.038909 6.504371,-0.054549 22.026995,-0.054549 23.828902,0 21.994787,-0.022957 22.626695,0.2832095 0.393592,0.1906995 0.908192,0.6987197 1.124245,1.1098703 C 49.128389,2.9790993 49.098522,0.9278239 49.098522,25 c 0,24.044613 0.02901,22.022527 -0.32567,22.697489 -0.294751,0.560913 -0.831783,1.029593 -1.447852,1.263573 L 47.025,49.075 40.6125,49.08842 34.2,49.10184 v -9.325922 -9.325922 h 3.122734 3.122734 l 0.02758,-0.1625 c 0.01517,-0.08938 0.218205,-1.65875 0.45119,-3.4875 0.232985,-1.82875 0.436363,-3.398125 0.45195,-3.4875 l 0.02834,-0.1625 H 37.802265 34.2 v -2.69345 c 0,-3.033975 0.02224,-3.304421 0.324404,-3.944827 0.242292,-0.513515 0.595903,-0.870996 1.098979,-1.111006 0.748637,-0.357163 0.807573,-0.363564 3.564117,-0.387125 L 41.65,14.992538 V 11.702034 8.4115225 L 41.3875,8.3811095 C 39.678833,8.183147 35.778295,8.07834 34.675,8.200746 32.235402,8.471409 30.197287,9.4574545 28.837385,11.025 c -0.858967,0.990122 -1.523332,2.306261 -1.85508,3.675 -0.319736,1.319177 -0.378853,2.23299 -0.380882,5.8875 l -0.0014,2.5625 h -3.125 -3.125 v 3.65 3.65 h 3.125 3.125 v 9.325 9.325 l -11.7125,-0.0043 C 5.617437,49.0924 3.120491,49.07829 2.913608,49.02815 Z"
       id="path1398"
       inkscape:connector-curvature="0" />
  </g>
</svg>
